<svg width="92" height="92" viewBox="0 0 92 92" fill="none" xmlns="http://www.w3.org/2000/svg">
<path d="M7.60024 23.6324L45.5328 1.73205L83.4654 23.6324V67.4332L45.5328 89.3336L7.60024 67.4332V23.6324Z" fill="black" stroke="white" stroke-width="3"/>
<path d="M6.46771 23.5425L17.8509 30.7864" stroke="white"/>
<path d="M45.475 77.0954L45.3356 90.5873" stroke="white"/>
<path d="M83.8218 23.2838L72.4386 30.5277" stroke="white"/>
<path d="M27.733 45H26.8523C26.8002 44.7467 26.709 44.5241 26.5788 44.3324C26.451 44.1406 26.2947 43.9796 26.1101 43.8494C25.9278 43.7169 25.7254 43.6174 25.5028 43.5511C25.2803 43.4848 25.0483 43.4517 24.8068 43.4517C24.3665 43.4517 23.9676 43.563 23.6101 43.7855C23.255 44.008 22.9721 44.3359 22.7614 44.7692C22.553 45.2024 22.4489 45.7339 22.4489 46.3636C22.4489 46.9934 22.553 47.5249 22.7614 47.9581C22.9721 48.3913 23.255 48.7192 23.6101 48.9418C23.9676 49.1643 24.3665 49.2756 24.8068 49.2756C25.0483 49.2756 25.2803 49.2424 25.5028 49.1761C25.7254 49.1098 25.9278 49.0116 26.1101 48.8814C26.2947 48.7488 26.451 48.5866 26.5788 48.3949C26.709 48.2008 26.8002 47.9782 26.8523 47.7273H27.733C27.6667 48.099 27.5459 48.4316 27.3707 48.7251C27.1955 49.0187 26.9777 49.2685 26.7173 49.4744C26.4569 49.678 26.1645 49.8331 25.8402 49.9396C25.5182 50.0462 25.1738 50.0994 24.8068 50.0994C24.1866 50.0994 23.6349 49.9479 23.152 49.6449C22.669 49.3419 22.2891 48.911 22.0121 48.3523C21.7351 47.7936 21.5966 47.1307 21.5966 46.3636C21.5966 45.5966 21.7351 44.9337 22.0121 44.375C22.2891 43.8163 22.669 43.3854 23.152 43.0824C23.6349 42.7794 24.1866 42.6278 24.8068 42.6278C25.1738 42.6278 25.5182 42.6811 25.8402 42.7876C26.1645 42.8942 26.4569 43.0504 26.7173 43.2564C26.9777 43.46 27.1955 43.7086 27.3707 44.0021C27.5459 44.2933 27.6667 44.6259 27.733 45ZM35.2924 46.3636C35.2924 47.1307 35.1539 47.7936 34.877 48.3523C34.6 48.911 34.22 49.3419 33.737 49.6449C33.2541 49.9479 32.7025 50.0994 32.0822 50.0994C31.4619 50.0994 30.9103 49.9479 30.4274 49.6449C29.9444 49.3419 29.5645 48.911 29.2875 48.3523C29.0105 47.7936 28.872 47.1307 28.872 46.3636C28.872 45.5966 29.0105 44.9337 29.2875 44.375C29.5645 43.8163 29.9444 43.3854 30.4274 43.0824C30.9103 42.7794 31.4619 42.6278 32.0822 42.6278C32.7025 42.6278 33.2541 42.7794 33.737 43.0824C34.22 43.3854 34.6 43.8163 34.877 44.375C35.1539 44.9337 35.2924 45.5966 35.2924 46.3636ZM34.4402 46.3636C34.4402 45.7339 34.3348 45.2024 34.1241 44.7692C33.9158 44.3359 33.6329 44.008 33.2754 43.7855C32.9203 43.563 32.5225 43.4517 32.0822 43.4517C31.6419 43.4517 31.243 43.563 30.8855 43.7855C30.5304 44.008 30.2475 44.3359 30.0368 44.7692C29.8284 45.2024 29.7243 45.7339 29.7243 46.3636C29.7243 46.9934 29.8284 47.5249 30.0368 47.9581C30.2475 48.3913 30.5304 48.7192 30.8855 48.9418C31.243 49.1643 31.6419 49.2756 32.0822 49.2756C32.5225 49.2756 32.9203 49.1643 33.2754 48.9418C33.6329 48.7192 33.9158 48.3913 34.1241 47.9581C34.3348 47.5249 34.4402 46.9934 34.4402 46.3636ZM42.5403 42.7273V50H41.688L37.725 44.2898H37.6539V50H36.7733V42.7273H37.6255L41.6028 48.4517H41.6738V42.7273H42.5403ZM43.9048 43.5085V42.7273H49.3594V43.5085H47.0724V50H46.1918V43.5085H43.9048ZM50.1673 50H49.244L51.9144 42.7273H52.8235L55.494 50H54.5707L52.3974 43.8778H52.3406L50.1673 50ZM50.5082 47.1591H54.2298V47.9403H50.5082V47.1591ZM62.1373 45H61.2566C61.2045 44.7467 61.1133 44.5241 60.9831 44.3324C60.8553 44.1406 60.699 43.9796 60.5144 43.8494C60.3321 43.7169 60.1297 43.6174 59.9071 43.5511C59.6846 43.4848 59.4526 43.4517 59.2111 43.4517C58.7708 43.4517 58.3719 43.563 58.0144 43.7855C57.6593 44.008 57.3764 44.3359 57.1657 44.7692C56.9573 45.2024 56.8532 45.7339 56.8532 46.3636C56.8532 46.9934 56.9573 47.5249 57.1657 47.9581C57.3764 48.3913 57.6593 48.7192 58.0144 48.9418C58.3719 49.1643 58.7708 49.2756 59.2111 49.2756C59.4526 49.2756 59.6846 49.2424 59.9071 49.1761C60.1297 49.1098 60.3321 49.0116 60.5144 48.8814C60.699 48.7488 60.8553 48.5866 60.9831 48.3949C61.1133 48.2008 61.2045 47.9782 61.2566 47.7273H62.1373C62.071 48.099 61.9502 48.4316 61.775 48.7251C61.5998 49.0187 61.382 49.2685 61.1216 49.4744C60.8612 49.678 60.5688 49.8331 60.2445 49.9396C59.9225 50.0462 59.5781 50.0994 59.2111 50.0994C58.5909 50.0994 58.0392 49.9479 57.5563 49.6449C57.0733 49.3419 56.6934 48.911 56.4164 48.3523C56.1394 47.7936 56.0009 47.1307 56.0009 46.3636C56.0009 45.5966 56.1394 44.9337 56.4164 44.375C56.6934 43.8163 57.0733 43.3854 57.5563 43.0824C58.0392 42.7794 58.5909 42.6278 59.2111 42.6278C59.5781 42.6278 59.9225 42.6811 60.2445 42.7876C60.5688 42.8942 60.8612 43.0504 61.1216 43.2564C61.382 43.46 61.5998 43.7086 61.775 44.0021C61.9502 44.2933 62.071 44.6259 62.1373 45ZM63.1626 43.5085V42.7273H68.6172V43.5085H66.3303V50H65.4496V43.5085H63.1626Z" fill="white"/>
</svg>
