<svg width="347" height="85" viewBox="0 0 347 85" fill="none" xmlns="http://www.w3.org/2000/svg">
<path d="M11.5814 11.7887L31 0.57735L50.4186 11.7887V34.2113L31 45.4226L11.5814 34.2113V11.7887Z" fill="black" stroke="white"/>
<path d="M16.1989 22.3295H17.25L19.7216 28.3665H19.8068L22.2784 22.3295H23.3295V29.6023H22.5057V24.0767H22.4347L20.1619 29.6023H19.3665L17.0937 24.0767H17.0227V29.6023H16.1989V22.3295ZM25.0953 29.6023V22.3295H29.4845V23.1108H25.976V25.5682H29.2573V26.3494H25.976V28.821H29.5414V29.6023H25.0953ZM36.839 22.3295V29.6023H35.9867L32.0236 23.892H31.9526V29.6023H31.0719V22.3295H31.9242L35.9015 28.054H35.9725V22.3295H36.839ZM43.3739 22.3295H44.2546V27.1449C44.2546 27.642 44.1374 28.0859 43.903 28.4766C43.671 28.8648 43.3432 29.1714 42.9194 29.3963C42.4956 29.6188 41.9985 29.7301 41.4279 29.7301C40.8574 29.7301 40.3602 29.6188 39.9364 29.3963C39.5127 29.1714 39.1836 28.8648 38.9492 28.4766C38.7172 28.0859 38.6012 27.642 38.6012 27.1449V22.3295H39.4819V27.0739C39.4819 27.429 39.56 27.745 39.7163 28.022C39.8725 28.2966 40.095 28.5132 40.3839 28.6719C40.6751 28.8281 41.0231 28.9062 41.4279 28.9062C41.8327 28.9062 42.1807 28.8281 42.4719 28.6719C42.7631 28.5132 42.9857 28.2966 43.1396 28.022C43.2958 27.745 43.3739 27.429 43.3739 27.0739V22.3295Z" fill="white"/>
<path d="M11.267 11.892L17.017 15.5511" stroke="white"/>
<path d="M30.9708 38.9432L30.9004 45.7583" stroke="white"/>
<path d="M50.3409 11.7614L44.5909 15.4204" stroke="white"/>
<path d="M0 84H19V61H35L75 21H1046" stroke="white"/>
</svg>
