<svg width="92" height="92" viewBox="0 0 92 92" fill="none" xmlns="http://www.w3.org/2000/svg">
<path d="M7.60024 23.6324L45.5328 1.73205L83.4654 23.6324V67.4332L45.5328 89.3336L7.60024 67.4332V23.6324Z" fill="black" stroke="white" stroke-width="3"/>
<path d="M83.8218 23.2838L72.4386 30.5277" stroke="white"/>
<path d="M6.46771 23.5425L17.8509 30.7864" stroke="white"/>
<path d="M45.475 77.0954L45.3356 90.5873" stroke="white"/>
<path d="M31.8807 52V44.7273H32.7614V47.9659H36.6392V44.7273H37.5199V52H36.6392V48.7472H32.7614V52H31.8807ZM45.4194 48.3636C45.4194 49.1307 45.2809 49.7936 45.0039 50.3523C44.7269 50.911 44.3469 51.3419 43.864 51.6449C43.381 51.9479 42.8294 52.0994 42.2092 52.0994C41.5889 52.0994 41.0373 51.9479 40.5543 51.6449C40.0714 51.3419 39.6914 50.911 39.4144 50.3523C39.1374 49.7936 38.9989 49.1307 38.9989 48.3636C38.9989 47.5966 39.1374 46.9337 39.4144 46.375C39.6914 45.8163 40.0714 45.3854 40.5543 45.0824C41.0373 44.7794 41.5889 44.6278 42.2092 44.6278C42.8294 44.6278 43.381 44.7794 43.864 45.0824C44.3469 45.3854 44.7269 45.8163 45.0039 46.375C45.2809 46.9337 45.4194 47.5966 45.4194 48.3636ZM44.5671 48.3636C44.5671 47.7339 44.4618 47.2024 44.2511 46.7692C44.0427 46.3359 43.7598 46.008 43.4023 45.7855C43.0472 45.563 42.6495 45.4517 42.2092 45.4517C41.7688 45.4517 41.3699 45.563 41.0124 45.7855C40.6573 46.008 40.3744 46.3359 40.1637 46.7692C39.9554 47.2024 39.8512 47.7339 39.8512 48.3636C39.8512 48.9934 39.9554 49.5249 40.1637 49.9581C40.3744 50.3913 40.6573 50.7192 41.0124 50.9418C41.3699 51.1643 41.7688 51.2756 42.2092 51.2756C42.6495 51.2756 43.0472 51.1643 43.4023 50.9418C43.7598 50.7192 44.0427 50.3913 44.2511 49.9581C44.4618 49.5249 44.5671 48.9934 44.5671 48.3636ZM46.9002 44.7273H47.9513L50.4229 50.7642H50.5082L52.9798 44.7273H54.0309V52H53.207V46.4744H53.136L50.8633 52H50.0678L47.7951 46.4744H47.7241V52H46.9002V44.7273ZM55.7967 52V44.7273H60.1859V45.5085H56.6774V47.9659H59.9586V48.7472H56.6774V51.2188H60.2427V52H55.7967Z" fill="white"/>
</svg>
