<svg width="92" height="92" viewBox="0 0 92 92" fill="none" xmlns="http://www.w3.org/2000/svg">
<path d="M7.60024 23.6324L45.5328 1.73205L83.4654 23.6324V67.4332L45.5328 89.3336L7.60024 67.4332V23.6324Z" fill="black" stroke="white" stroke-width="3"/>
<path d="M6.46771 23.5425L17.8509 30.7864" stroke="white"/>
<path d="M45.475 77.0954L45.3356 90.5873" stroke="white"/>
<path d="M83.8218 23.2838L72.4386 30.5277" stroke="white"/>
<path d="M32.858 46.9343C32.8153 46.5745 32.6425 46.2951 32.3395 46.0963C32.0365 45.8974 31.6648 45.798 31.2244 45.798C30.9025 45.798 30.6207 45.8501 30.3793 45.9542C30.1402 46.0584 29.9531 46.2016 29.8182 46.3839C29.6856 46.5662 29.6193 46.7734 29.6193 47.0054C29.6193 47.1995 29.6655 47.3664 29.7578 47.5061C29.8525 47.6434 29.9732 47.7582 30.12 47.8505C30.2668 47.9405 30.4207 48.0151 30.5817 48.0743C30.7427 48.1311 30.8906 48.1772 31.0256 48.2127L31.7642 48.4116C31.9536 48.4613 32.1643 48.53 32.3963 48.6176C32.6307 48.7052 32.8544 48.8247 33.0675 48.9762C33.2829 49.1254 33.4605 49.3172 33.6001 49.5515C33.7398 49.7859 33.8097 50.0735 33.8097 50.4145C33.8097 50.8074 33.7067 51.1626 33.5007 51.4798C33.2971 51.797 32.9988 52.0492 32.6058 52.2362C32.2152 52.4232 31.7405 52.5167 31.1818 52.5167C30.661 52.5167 30.21 52.4327 29.8288 52.2646C29.45 52.0965 29.1518 51.8621 28.9339 51.5615C28.7185 51.2608 28.5966 50.9116 28.5682 50.5139H29.4773C29.5009 50.7885 29.5933 51.0158 29.7543 51.1957C29.9176 51.3733 30.1236 51.5058 30.3722 51.5934C30.6231 51.6787 30.893 51.7213 31.1818 51.7213C31.518 51.7213 31.8198 51.6668 32.0874 51.5579C32.3549 51.4467 32.5668 51.2928 32.723 51.0963C32.8793 50.8974 32.9574 50.6654 32.9574 50.4002C32.9574 50.1588 32.8899 49.9623 32.755 49.8108C32.62 49.6592 32.4425 49.5361 32.2223 49.4414C32.0021 49.3467 31.7642 49.2639 31.5085 49.1929L30.6136 48.9372C30.0455 48.7738 29.5956 48.5406 29.2642 48.2376C28.9328 47.9346 28.767 47.538 28.767 47.048C28.767 46.6408 28.8771 46.2857 29.0973 45.9826C29.3198 45.6772 29.6181 45.4405 29.9922 45.2724C30.3686 45.102 30.7888 45.0167 31.2528 45.0167C31.7216 45.0167 32.1383 45.1008 32.5028 45.2689C32.8674 45.4346 33.1563 45.6618 33.3693 45.9507C33.5848 46.2395 33.6984 46.5674 33.7102 46.9343H32.858ZM35.2576 52.3889V45.1162H36.1383V48.7241H36.2235L39.4906 45.1162H40.6412L37.5872 48.3974L40.6412 52.3889H39.5758L37.0474 49.0082L36.1383 50.0309V52.3889H35.2576ZM42.6618 45.1162V52.3889H41.7811V45.1162H42.6618ZM44.4276 52.3889V45.1162H45.3082V51.6076H48.6889V52.3889H44.4276ZM50.0526 52.3889V45.1162H50.9332V51.6076H54.3139V52.3889H50.0526ZM59.6548 46.9343C59.6122 46.5745 59.4394 46.2951 59.1364 46.0963C58.8333 45.8974 58.4616 45.798 58.0213 45.798C57.6993 45.798 57.4176 45.8501 57.1761 45.9542C56.937 46.0584 56.75 46.2016 56.6151 46.3839C56.4825 46.5662 56.4162 46.7734 56.4162 47.0054C56.4162 47.1995 56.4624 47.3664 56.5547 47.5061C56.6494 47.6434 56.7701 47.7582 56.9169 47.8505C57.0637 47.9405 57.2176 48.0151 57.3786 48.0743C57.5395 48.1311 57.6875 48.1772 57.8224 48.2127L58.5611 48.4116C58.7505 48.4613 58.9612 48.53 59.1932 48.6176C59.4276 48.7052 59.6513 48.8247 59.8643 48.9762C60.0798 49.1254 60.2573 49.3172 60.397 49.5515C60.5367 49.7859 60.6065 50.0735 60.6065 50.4145C60.6065 50.8074 60.5036 51.1626 60.2976 51.4798C60.094 51.797 59.7957 52.0492 59.4027 52.2362C59.0121 52.4232 58.5374 52.5167 57.9787 52.5167C57.4579 52.5167 57.0069 52.4327 56.6257 52.2646C56.2469 52.0965 55.9486 51.8621 55.7308 51.5615C55.5154 51.2608 55.3935 50.9116 55.3651 50.5139H56.2741C56.2978 50.7885 56.3902 51.0158 56.5511 51.1957C56.7145 51.3733 56.9205 51.5058 57.169 51.5934C57.42 51.6787 57.6899 51.7213 57.9787 51.7213C58.3149 51.7213 58.6167 51.6668 58.8842 51.5579C59.1518 51.4467 59.3636 51.2928 59.5199 51.0963C59.6761 50.8974 59.7543 50.6654 59.7543 50.4002C59.7543 50.1588 59.6868 49.9623 59.5518 49.8108C59.4169 49.6592 59.2393 49.5361 59.0192 49.4414C58.799 49.3467 58.5611 49.2639 58.3054 49.1929L57.4105 48.9372C56.8423 48.7738 56.3925 48.5406 56.0611 48.2376C55.7296 47.9346 55.5639 47.538 55.5639 47.048C55.5639 46.6408 55.674 46.2857 55.8942 45.9826C56.1167 45.6772 56.415 45.4405 56.7891 45.2724C57.1655 45.102 57.5857 45.0167 58.0497 45.0167C58.5185 45.0167 58.9351 45.1008 59.2997 45.2689C59.6643 45.4346 59.9531 45.6618 60.1662 45.9507C60.3816 46.2395 60.4953 46.5674 60.5071 46.9343H59.6548Z" fill="white"/>
</svg>
