<svg width="92" height="92" viewBox="0 0 92 92" fill="none" xmlns="http://www.w3.org/2000/svg">
<path d="M7.60024 23.6324L45.5328 1.73205L83.4654 23.6324V67.4332L45.5328 89.3336L7.60024 67.4332V23.6324Z" fill="black" stroke="white" stroke-width="3"/>
<path d="M6.46771 23.5425L17.8509 30.7864" stroke="white"/>
<path d="M45.475 77.0954L45.3356 90.5873" stroke="white"/>
<path d="M83.8218 23.2838L72.4386 30.5277" stroke="white"/>
<path d="M29.2017 53.3889L27.2131 46.1162H28.108L29.6278 52.0395H29.6989L31.2472 46.1162H32.2415L33.7898 52.0395H33.8608L35.3807 46.1162H36.2756L34.2869 53.3889H33.3778L31.7727 47.5934H31.7159L30.1108 53.3889H29.2017ZM43.1674 49.7525C43.1674 50.5196 43.0289 51.1824 42.752 51.7412C42.475 52.2999 42.095 52.7307 41.612 53.0338C41.1291 53.3368 40.5775 53.4883 39.9572 53.4883C39.3369 53.4883 38.7853 53.3368 38.3024 53.0338C37.8194 52.7307 37.4395 52.2999 37.1625 51.7412C36.8855 51.1824 36.747 50.5196 36.747 49.7525C36.747 48.9855 36.8855 48.3226 37.1625 47.7639C37.4395 47.2052 37.8194 46.7743 38.3024 46.4713C38.7853 46.1682 39.3369 46.0167 39.9572 46.0167C40.5775 46.0167 41.1291 46.1682 41.612 46.4713C42.095 46.7743 42.475 47.2052 42.752 47.7639C43.0289 48.3226 43.1674 48.9855 43.1674 49.7525ZM42.3152 49.7525C42.3152 49.1228 42.2098 48.5913 41.9991 48.1581C41.7908 47.7248 41.5079 47.3969 41.1504 47.1744C40.7953 46.9519 40.3975 46.8406 39.9572 46.8406C39.5169 46.8406 39.118 46.9519 38.7605 47.1744C38.4054 47.3969 38.1225 47.7248 37.9118 48.1581C37.7034 48.5913 37.5993 49.1228 37.5993 49.7525C37.5993 50.3823 37.7034 50.9137 37.9118 51.347C38.1225 51.7802 38.4054 52.1081 38.7605 52.3306C39.118 52.5532 39.5169 52.6645 39.9572 52.6645C40.3975 52.6645 40.7953 52.5532 41.1504 52.3306C41.5079 52.1081 41.7908 51.7802 41.9991 51.347C42.2098 50.9137 42.3152 50.3823 42.3152 49.7525ZM44.6483 53.3889V46.1162H47.1056C47.6738 46.1162 48.1402 46.2132 48.5048 46.4074C48.8694 46.5991 49.1393 46.8631 49.3145 47.1993C49.4896 47.5354 49.5772 47.9178 49.5772 48.3463C49.5772 48.7748 49.4896 49.1547 49.3145 49.4862C49.1393 49.8176 48.8706 50.078 48.5083 50.2674C48.1461 50.4545 47.6833 50.548 47.1199 50.548H45.1312V49.7525H47.0914C47.4797 49.7525 47.7922 49.6957 48.0289 49.5821C48.2681 49.4684 48.4409 49.3074 48.5474 49.0991C48.6563 48.8884 48.7108 48.6375 48.7108 48.3463C48.7108 48.0551 48.6563 47.8006 48.5474 47.5828C48.4385 47.365 48.2645 47.1969 48.0254 47.0785C47.7863 46.9578 47.4702 46.8974 47.0772 46.8974H45.5289V53.3889H44.6483ZM48.0716 50.1218L49.8613 53.3889H48.8386L47.0772 50.1218H48.0716ZM51.0447 53.3889V46.1162H51.9254V49.7241H52.0107L55.2777 46.1162H56.4283L53.3743 49.3974L56.4283 53.3889H55.3629L52.8345 50.0082L51.9254 51.0309V53.3889H51.0447ZM61.5455 47.9343C61.5028 47.5745 61.33 47.2951 61.027 47.0963C60.724 46.8974 60.3523 46.798 59.9119 46.798C59.59 46.798 59.3082 46.8501 59.0668 46.9542C58.8277 47.0584 58.6406 47.2016 58.5057 47.3839C58.3731 47.5662 58.3068 47.7734 58.3068 48.0054C58.3068 48.1995 58.353 48.3664 58.4453 48.5061C58.54 48.6434 58.6607 48.7582 58.8075 48.8505C58.9543 48.9405 59.1082 49.0151 59.2692 49.0743C59.4302 49.1311 59.5781 49.1772 59.7131 49.2127L60.4517 49.4116C60.6411 49.4613 60.8518 49.53 61.0838 49.6176C61.3182 49.7052 61.5419 49.8247 61.755 49.9762C61.9704 50.1254 62.148 50.3172 62.2876 50.5515C62.4273 50.7859 62.4972 51.0735 62.4972 51.4145C62.4972 51.8074 62.3942 52.1626 62.1882 52.4798C61.9846 52.797 61.6863 53.0492 61.2933 53.2362C60.9027 53.4232 60.428 53.5167 59.8693 53.5167C59.3485 53.5167 58.8975 53.4327 58.5163 53.2646C58.1375 53.0965 57.8393 52.8621 57.6214 52.5615C57.406 52.2608 57.2841 51.9116 57.2557 51.5139H58.1648C58.1884 51.7885 58.2808 52.0158 58.4418 52.1957C58.6051 52.3733 58.8111 52.5058 59.0597 52.5934C59.3106 52.6787 59.5805 52.7213 59.8693 52.7213C60.2055 52.7213 60.5073 52.6668 60.7749 52.5579C61.0424 52.4467 61.2543 52.2928 61.4105 52.0963C61.5668 51.8974 61.6449 51.6654 61.6449 51.4002C61.6449 51.1588 61.5774 50.9623 61.4425 50.8108C61.3075 50.6592 61.13 50.5361 60.9098 50.4414C60.6896 50.3467 60.4517 50.2639 60.196 50.1929L59.3011 49.9372C58.733 49.7738 58.2831 49.5406 57.9517 49.2376C57.6203 48.9346 57.4545 48.538 57.4545 48.048C57.4545 47.6408 57.5646 47.2857 57.7848 46.9826C58.0073 46.6772 58.3056 46.4405 58.6797 46.2724C59.0561 46.102 59.4763 46.0167 59.9403 46.0167C60.4091 46.0167 60.8258 46.1008 61.1903 46.2689C61.5549 46.4346 61.8438 46.6618 62.0568 46.9507C62.2723 47.2395 62.3859 47.5674 62.3977 47.9343H61.5455Z" fill="white"/>
</svg>
